<svg xmlns="http://www.w3.org/2000/svg" xmlns:xlink="http://www.w3.org/1999/xlink" width="96" zoomAndPan="magnify" viewBox="0 0 72 72" height="96" preserveAspectRatio="xMidYMid meet" version="1.0"><defs><clipPath id="0507af88a6"><path d="M 3.136719 13.007812 L 32.371094 13.007812 L 32.371094 57.019531 L 3.136719 57.019531 Z M 3.136719 13.007812 " clip-rule="nonzero"/></clipPath><clipPath id="786faf333b"><path d="M 32.214844 13.007812 L 67.964844 13.007812 L 67.964844 57.496094 L 32.214844 57.496094 Z M 32.214844 13.007812 " clip-rule="nonzero"/></clipPath><clipPath id="014d7e8bd5"><path d="M 3.136719 57.53125 L 68.914062 57.53125 L 68.914062 63.207031 L 3.136719 63.207031 Z M 3.136719 57.53125 " clip-rule="nonzero"/></clipPath></defs><g clip-path="url(#0507af88a6)"><path fill="#ffde15" d="M 6.324219 52.964844 L 6.324219 28.375 L 9.605469 28.375 L 9.605469 25.1875 L 6.277344 25.1875 C 4.550781 25.1875 3.136719 26.601562 3.136719 28.332031 L 3.136719 53.007812 C 3.136719 54.734375 4.550781 56.152344 6.277344 56.152344 L 27.363281 56.152344 C 24.417969 54.898438 21.324219 54 18.160156 53.484375 C 17.371094 53.355469 16.574219 53.25 15.773438 53.167969 C 15.128906 53.101562 14.480469 53.050781 13.832031 53.015625 C 13.332031 52.988281 12.828125 52.972656 12.332031 52.964844 L 10.886719 52.964844 L 9.605469 52.972656 L 9.605469 52.964844 Z M 44.75 46.859375 C 40.980469 48.671875 37.402344 50.863281 34.074219 53.398438 C 37.214844 49.621094 40.800781 46.238281 44.75 43.324219 L 44.75 18.109375 C 40.683594 19.28125 36.859375 21.199219 33.472656 23.777344 C 36.65625 20.476562 40.503906 17.910156 44.75 16.234375 C 45.566406 15.910156 46.398438 15.621094 47.246094 15.367188 L 47.246094 45.730469 C 46.40625 46.085938 45.574219 46.464844 44.75 46.859375 Z M 56.882812 52.964844 L 56.882812 31.679688 C 56.964844 31.683594 57.050781 31.6875 57.136719 31.6875 L 60.066406 31.6875 L 60.066406 53.007812 C 60.066406 54.734375 58.652344 56.148438 56.925781 56.148438 L 35.839844 56.148438 C 38.789062 54.894531 41.882812 54 45.042969 53.480469 C 45.835938 53.351562 46.632812 53.246094 47.429688 53.164062 C 48.078125 53.097656 48.726562 53.050781 49.375 53.015625 C 49.875 52.988281 50.375 52.972656 50.875 52.964844 L 52.316406 52.964844 L 53.597656 52.972656 L 53.597656 52.964844 Z M 49.277344 48.59375 L 49.277344 20.730469 L 51.773438 20.730469 L 51.773438 51.136719 C 50.941406 51.128906 50.109375 51.148438 49.277344 51.195312 C 48.597656 51.230469 47.921875 51.28125 47.246094 51.351562 C 46.410156 51.4375 45.578125 51.546875 44.75 51.683594 C 40.972656 52.300781 37.285156 53.433594 33.796875 55.0625 C 37.050781 52.480469 40.777344 50.59375 44.75 49.492188 C 45.570312 49.261719 46.402344 49.070312 47.246094 48.910156 C 47.917969 48.78125 48.59375 48.675781 49.277344 48.59375 Z M 23.59375 59.660156 L 29.273438 59.660156 L 29.273438 58.816406 C 29.273438 58.390625 29.667969 58.042969 30.148438 58.042969 L 33.058594 58.042969 C 33.539062 58.042969 33.933594 58.390625 33.933594 58.816406 L 33.933594 59.660156 L 39.613281 59.660156 C 40.363281 59.660156 40.976562 60.203125 40.976562 60.863281 L 40.976562 61.5625 C 40.976562 62.226562 40.363281 62.769531 39.613281 62.769531 L 23.59375 62.769531 C 22.839844 62.769531 22.226562 62.226562 22.226562 61.5625 L 22.226562 60.863281 C 22.226562 60.203125 22.839844 59.660156 23.59375 59.660156 Z M 13.925781 48.59375 L 13.925781 20.730469 L 11.429688 20.730469 L 11.429688 51.136719 C 12.265625 51.128906 13.097656 51.148438 13.925781 51.195312 C 14.605469 51.230469 15.285156 51.28125 15.960938 51.351562 C 16.796875 51.4375 17.628906 51.546875 18.457031 51.683594 C 22.234375 52.300781 25.917969 53.433594 29.40625 55.0625 C 26.15625 52.480469 22.429688 50.59375 18.457031 49.492188 C 17.632812 49.261719 16.800781 49.070312 15.960938 48.910156 C 15.289062 48.78125 14.609375 48.675781 13.925781 48.59375 Z M 60.972656 13.019531 L 63.203125 13.019531 C 63.375 13.019531 63.519531 13.160156 63.519531 13.335938 L 63.519531 15.5625 C 63.519531 15.738281 63.375 15.878906 63.203125 15.878906 L 60.972656 15.878906 C 60.800781 15.878906 60.660156 15.738281 60.660156 15.5625 L 60.660156 13.335938 C 60.660156 13.160156 60.800781 13.019531 60.972656 13.019531 Z M 57.136719 21.226562 L 62.644531 21.226562 C 62.730469 21.226562 62.804688 21.191406 62.867188 21.132812 L 64.007812 19.992188 C 64.066406 19.933594 64.097656 19.859375 64.097656 19.769531 L 64.097656 16.773438 C 64.097656 16.601562 64.238281 16.457031 64.414062 16.457031 L 68.546875 16.457031 C 68.722656 16.457031 68.863281 16.601562 68.863281 16.773438 L 68.863281 20.910156 C 68.863281 21.082031 68.722656 21.226562 68.546875 21.226562 L 65.550781 21.226562 C 65.464844 21.226562 65.390625 21.257812 65.328125 21.316406 L 64.191406 22.457031 C 64.128906 22.515625 64.097656 22.59375 64.097656 22.679688 L 64.097656 28.1875 C 64.097656 28.363281 63.957031 28.503906 63.78125 28.503906 L 57.136719 28.503906 C 56.960938 28.503906 56.820312 28.363281 56.820312 28.1875 L 56.820312 21.539062 C 56.820312 21.367188 56.960938 21.226562 57.136719 21.226562 Z M 18.457031 46.859375 C 22.222656 48.671875 25.800781 50.863281 29.128906 53.398438 C 25.988281 49.621094 22.402344 46.238281 18.457031 43.324219 L 18.457031 18.109375 C 22.519531 19.28125 26.34375 21.199219 29.730469 23.777344 C 26.546875 20.476562 22.699219 17.910156 18.453125 16.234375 C 17.636719 15.910156 16.804688 15.621094 15.960938 15.367188 L 15.960938 45.730469 C 16.800781 46.085938 17.632812 46.464844 18.457031 46.859375 Z M 18.457031 46.859375 " fill-opacity="1" fill-rule="evenodd"/></g><g clip-path="url(#786faf333b)"><path fill="#002c76" d="M 6.492188 52.964844 L 6.492188 28.375 L 9.773438 28.375 L 9.773438 25.1875 L 6.449219 25.1875 C 4.71875 25.1875 3.304688 26.601562 3.304688 28.332031 L 3.304688 53.007812 C 3.304688 54.734375 4.71875 56.152344 6.449219 56.152344 L 27.53125 56.152344 C 24.585938 54.898438 21.492188 54 18.328125 53.484375 C 17.539062 53.355469 16.742188 53.25 15.941406 53.167969 C 15.296875 53.101562 14.648438 53.050781 14 53.015625 C 13.5 52.988281 12.996094 52.972656 12.5 52.964844 L 11.054688 52.964844 L 9.773438 52.972656 L 9.773438 52.964844 Z M 44.917969 46.859375 C 41.148438 48.671875 37.570312 50.863281 34.242188 53.398438 C 37.382812 49.621094 40.96875 46.238281 44.917969 43.324219 L 44.917969 18.109375 C 40.851562 19.28125 37.027344 21.199219 33.640625 23.777344 C 36.824219 20.476562 40.671875 17.910156 44.917969 16.234375 C 45.734375 15.910156 46.566406 15.621094 47.414062 15.367188 L 47.414062 45.730469 C 46.574219 46.085938 45.742188 46.464844 44.917969 46.859375 Z M 57.050781 52.964844 L 57.050781 31.679688 C 57.132812 31.683594 57.21875 31.6875 57.304688 31.6875 L 60.234375 31.6875 L 60.234375 53.007812 C 60.234375 54.734375 58.820312 56.148438 57.09375 56.148438 L 36.007812 56.148438 C 38.957031 54.894531 42.050781 54 45.210938 53.480469 C 46.003906 53.351562 46.800781 53.246094 47.597656 53.164062 C 48.246094 53.097656 48.894531 53.050781 49.542969 53.015625 C 50.042969 52.988281 50.542969 52.972656 51.042969 52.964844 L 52.484375 52.964844 L 53.765625 52.972656 L 53.765625 52.964844 Z M 49.445312 48.59375 L 49.445312 20.730469 L 51.941406 20.730469 L 51.941406 51.136719 C 51.109375 51.128906 50.277344 51.148438 49.445312 51.195312 C 48.765625 51.230469 48.089844 51.28125 47.414062 51.351562 C 46.578125 51.4375 45.746094 51.546875 44.917969 51.683594 C 41.140625 52.300781 37.453125 53.433594 33.964844 55.0625 C 37.21875 52.480469 40.945312 50.59375 44.917969 49.492188 C 45.738281 49.261719 46.570312 49.070312 47.414062 48.910156 C 48.085938 48.78125 48.761719 48.675781 49.445312 48.59375 Z M 23.761719 59.660156 L 29.441406 59.660156 L 29.441406 58.816406 C 29.441406 58.390625 29.835938 58.042969 30.316406 58.042969 L 33.226562 58.042969 C 33.707031 58.042969 34.101562 58.390625 34.101562 58.816406 L 34.101562 59.660156 L 39.78125 59.660156 C 40.53125 59.660156 41.144531 60.203125 41.144531 60.863281 L 41.144531 61.5625 C 41.144531 62.226562 40.53125 62.769531 39.78125 62.769531 L 23.761719 62.769531 C 23.007812 62.769531 22.394531 62.226562 22.394531 61.5625 L 22.394531 60.863281 C 22.394531 60.203125 23.007812 59.660156 23.761719 59.660156 Z M 14.09375 48.59375 L 14.09375 20.730469 L 11.597656 20.730469 L 11.597656 51.136719 C 12.433594 51.128906 13.265625 51.148438 14.09375 51.195312 C 14.773438 51.230469 15.453125 51.28125 16.128906 51.351562 C 16.964844 51.4375 17.796875 51.546875 18.625 51.683594 C 22.402344 52.300781 26.085938 53.433594 29.574219 55.0625 C 26.324219 52.480469 22.597656 50.59375 18.625 49.492188 C 17.800781 49.261719 16.96875 49.070312 16.128906 48.910156 C 15.457031 48.78125 14.777344 48.675781 14.09375 48.59375 Z M 61.140625 13.019531 L 63.371094 13.019531 C 63.542969 13.019531 63.6875 13.160156 63.6875 13.335938 L 63.6875 15.5625 C 63.6875 15.738281 63.542969 15.878906 63.371094 15.878906 L 61.140625 15.878906 C 60.96875 15.878906 60.828125 15.738281 60.828125 15.5625 L 60.828125 13.335938 C 60.828125 13.160156 60.96875 13.019531 61.140625 13.019531 Z M 57.304688 21.226562 L 62.8125 21.226562 C 62.898438 21.226562 62.972656 21.191406 63.035156 21.132812 L 64.175781 19.992188 C 64.234375 19.933594 64.265625 19.859375 64.265625 19.769531 L 64.265625 16.773438 C 64.265625 16.601562 64.40625 16.457031 64.582031 16.457031 L 68.714844 16.457031 C 68.890625 16.457031 69.03125 16.601562 69.03125 16.773438 L 69.03125 20.910156 C 69.03125 21.082031 68.890625 21.226562 68.714844 21.226562 L 65.71875 21.226562 C 65.632812 21.226562 65.558594 21.257812 65.496094 21.316406 L 64.359375 22.457031 C 64.296875 22.515625 64.265625 22.59375 64.265625 22.679688 L 64.265625 28.1875 C 64.265625 28.363281 64.125 28.503906 63.949219 28.503906 L 57.304688 28.503906 C 57.128906 28.503906 56.988281 28.363281 56.988281 28.1875 L 56.988281 21.539062 C 56.988281 21.367188 57.128906 21.226562 57.304688 21.226562 Z M 18.625 46.859375 C 22.390625 48.671875 25.96875 50.863281 29.296875 53.398438 C 26.15625 49.621094 22.570312 46.238281 18.625 43.324219 L 18.625 18.109375 C 22.6875 19.28125 26.511719 21.199219 29.898438 23.777344 C 26.714844 20.476562 22.867188 17.910156 18.621094 16.234375 C 17.804688 15.910156 16.972656 15.621094 16.128906 15.367188 L 16.128906 45.730469 C 16.96875 46.085938 17.800781 46.464844 18.625 46.859375 Z M 18.625 46.859375 " fill-opacity="1" fill-rule="evenodd"/></g><g clip-path="url(#014d7e8bd5)"><path fill="#c9282d" d="M 6.324219 53.429688 L 6.324219 28.839844 L 9.605469 28.839844 L 9.605469 25.65625 L 6.277344 25.65625 C 4.550781 25.65625 3.136719 27.070312 3.136719 28.796875 L 3.136719 53.472656 C 3.136719 55.203125 4.550781 56.617188 6.277344 56.617188 L 27.363281 56.617188 C 24.417969 55.363281 21.324219 54.464844 18.160156 53.949219 C 17.371094 53.820312 16.574219 53.714844 15.773438 53.632812 C 15.128906 53.566406 14.480469 53.515625 13.832031 53.480469 C 13.332031 53.457031 12.828125 53.4375 12.332031 53.429688 L 10.886719 53.429688 L 9.605469 53.441406 L 9.605469 53.429688 Z M 44.75 47.328125 C 40.980469 49.136719 37.402344 51.328125 34.074219 53.867188 C 37.214844 50.085938 40.800781 46.703125 44.75 43.792969 L 44.75 18.574219 C 40.683594 19.746094 36.859375 21.667969 33.472656 24.246094 C 36.65625 20.945312 40.503906 18.375 44.75 16.699219 C 45.566406 16.378906 46.398438 16.089844 47.246094 15.835938 L 47.246094 46.195312 C 46.40625 46.554688 45.574219 46.929688 44.75 47.328125 Z M 56.882812 53.429688 L 56.882812 32.144531 C 56.964844 32.152344 57.050781 32.152344 57.136719 32.152344 L 60.066406 32.152344 L 60.066406 53.472656 C 60.066406 55.203125 58.652344 56.617188 56.925781 56.617188 L 35.839844 56.617188 C 38.789062 55.363281 41.882812 54.464844 45.042969 53.949219 C 45.835938 53.820312 46.632812 53.714844 47.429688 53.632812 C 48.078125 53.566406 48.726562 53.515625 49.375 53.480469 C 49.875 53.453125 50.375 53.4375 50.875 53.429688 L 52.316406 53.429688 L 53.597656 53.4375 L 53.597656 53.429688 Z M 49.277344 49.0625 L 49.277344 21.195312 L 51.773438 21.195312 L 51.773438 51.601562 C 50.941406 51.597656 50.109375 51.617188 49.277344 51.660156 C 48.597656 51.695312 47.921875 51.75 47.246094 51.816406 C 46.410156 51.902344 45.578125 52.011719 44.75 52.148438 C 40.972656 52.765625 37.285156 53.902344 33.796875 55.53125 C 37.050781 52.949219 40.777344 51.058594 44.75 49.957031 C 45.570312 49.730469 46.402344 49.535156 47.246094 49.375 C 47.917969 49.25 48.59375 49.144531 49.277344 49.0625 Z M 23.59375 60.125 L 29.273438 60.125 L 29.273438 59.285156 C 29.273438 58.859375 29.667969 58.511719 30.148438 58.511719 L 33.058594 58.511719 C 33.539062 58.511719 33.933594 58.859375 33.933594 59.285156 L 33.933594 60.125 L 39.613281 60.125 C 40.363281 60.125 40.976562 60.667969 40.976562 61.332031 L 40.976562 62.027344 C 40.976562 62.691406 40.363281 63.234375 39.613281 63.234375 L 23.59375 63.234375 C 22.839844 63.234375 22.226562 62.691406 22.226562 62.027344 L 22.226562 61.332031 C 22.226562 60.667969 22.839844 60.125 23.59375 60.125 Z M 13.925781 49.0625 L 13.925781 21.195312 L 11.429688 21.195312 L 11.429688 51.601562 C 12.265625 51.597656 13.097656 51.617188 13.925781 51.660156 C 14.605469 51.695312 15.285156 51.75 15.960938 51.816406 C 16.796875 51.902344 17.628906 52.011719 18.457031 52.148438 C 22.234375 52.765625 25.917969 53.902344 29.40625 55.53125 C 26.15625 52.949219 22.429688 51.058594 18.457031 49.957031 C 17.632812 49.730469 16.800781 49.535156 15.960938 49.375 C 15.289062 49.25 14.609375 49.144531 13.925781 49.0625 Z M 60.972656 13.484375 L 63.203125 13.484375 C 63.375 13.484375 63.519531 13.625 63.519531 13.800781 L 63.519531 16.03125 C 63.519531 16.203125 63.375 16.34375 63.203125 16.34375 L 60.972656 16.34375 C 60.800781 16.34375 60.660156 16.203125 60.660156 16.03125 L 60.660156 13.800781 C 60.660156 13.625 60.800781 13.484375 60.972656 13.484375 Z M 57.136719 21.691406 L 62.644531 21.691406 C 62.730469 21.691406 62.804688 21.660156 62.867188 21.597656 L 64.007812 20.460938 C 64.066406 20.398438 64.097656 20.324219 64.097656 20.238281 L 64.097656 17.242188 C 64.097656 17.066406 64.238281 16.925781 64.414062 16.925781 L 68.546875 16.925781 C 68.722656 16.925781 68.863281 17.066406 68.863281 17.242188 L 68.863281 21.375 C 68.863281 21.550781 68.722656 21.691406 68.546875 21.691406 L 65.550781 21.691406 C 65.464844 21.691406 65.390625 21.722656 65.328125 21.785156 L 64.191406 22.921875 C 64.128906 22.984375 64.097656 23.058594 64.097656 23.144531 L 64.097656 28.65625 C 64.097656 28.828125 63.957031 28.96875 63.78125 28.96875 L 57.136719 28.96875 C 56.960938 28.96875 56.820312 28.828125 56.820312 28.65625 L 56.820312 22.007812 C 56.820312 21.832031 56.960938 21.691406 57.136719 21.691406 Z M 18.457031 47.328125 C 22.222656 49.136719 25.800781 51.328125 29.128906 53.867188 C 25.988281 50.085938 22.402344 46.703125 18.457031 43.792969 L 18.457031 18.574219 C 22.519531 19.746094 26.34375 21.667969 29.730469 24.246094 C 26.546875 20.945312 22.699219 18.375 18.453125 16.699219 C 17.636719 16.378906 16.804688 16.089844 15.960938 15.835938 L 15.960938 46.195312 C 16.800781 46.554688 17.632812 46.929688 18.457031 47.328125 Z M 18.457031 47.328125 " fill-opacity="1" fill-rule="evenodd"/></g></svg>